<svg width="96" height="68" viewBox="0 0 96 68" fill="none" xmlns="http://www.w3.org/2000/svg">
    <path d="M95.088 31.6484C90.5754 37.1447 81.7332 36.7155 81.7332 36.7155C76.28 60.2088 43.3471 72.1658 20.4816 66.2919C-2.38155 60.42 0.76361 33.1496 0.76361 33.1496H67.6797C73.2019 33.1496 73.6226 31.4715 73.6226 31.4715C68.7281 19.864 76.2802 13.6407 76.2802 13.6407C82.1541 14.6913 83.6209 24.7585 83.6209 24.7585C88.442 23.8936 92.314 24.9225 94.6825 25.9126C94.9197 27.7957 95.0579 29.7091 95.088 31.6484Z" fill="white"/>
    <path d="M17.2669 22.5215H7.89648V31.0517H17.2669V22.5215Z" fill="white"/>
    <path d="M29.0404 22.5215H19.6699V31.0517H29.0404V22.5215Z" fill="white"/>
    <path d="M64.3646 22.5215H54.9941V31.0517H64.3646V22.5215Z" fill="white"/>
    <path d="M52.5892 22.5215H43.2188V31.0517H52.5892V22.5215Z" fill="white"/>
    <path d="M52.5892 0.706665H43.2188V9.2369H52.5892V0.706665Z" fill="white"/>
    <path d="M40.8138 22.5215H31.4434V31.0517H40.8138V22.5215Z" fill="white"/>
    <path d="M29.0404 11.6132H19.6699V20.1434H29.0404V11.6132Z" fill="white"/>
    <path d="M52.5892 11.6132H43.2188V20.1434H52.5892V11.6132Z" fill="white"/>
    <path d="M40.8138 11.6132H31.4434V20.1434H40.8138V11.6132Z" fill="white"/>
</svg>

