<svg width="30" height="32" viewBox="0 0 30 32" fill="none" xmlns="http://www.w3.org/2000/svg">
    <path d="M22.8847 22.7144C22.8847 22.535 22.8847 22.4153 22.8847 22.2956C22.8847 22.1162 22.8847 21.9367 22.8847 21.9367C23.0043 19.8427 23.5425 19.065 24.2002 18.6462C24.1404 18.5265 24.0208 18.4069 23.9012 18.2872C23.6621 17.9283 23.3033 17.5095 23.0043 16.971L22.9445 16.8514C22.8847 16.7317 22.7651 16.4924 22.5857 16.1933C21.6888 14.5181 19.7753 11.108 21.0908 8.89436C21.6888 7.93712 22.7053 7.39871 24.26 7.27905C23.6023 5.48424 21.2702 1.11685 15.8886 1.05702C11.2245 0.997195 9.66977 5.24493 9.19141 7.75766C9.90896 7.45853 10.6863 7.27905 11.4039 7.27905C11.4039 7.27905 11.4039 7.27905 11.4636 7.27905C13.2575 7.27905 14.4535 8.23628 14.8122 9.85161C15.0514 11.0482 15.171 12.125 15.171 13.0823C15.171 15.1762 14.7524 16.3129 14.3937 17.2701L14.2741 17.5693C14.1545 17.8086 14.0947 18.0479 13.9751 18.2872C13.8555 18.5265 13.7957 18.706 13.7359 18.8855C14.0947 18.9453 14.3937 19.065 14.6329 19.1846L14.7524 19.2445C14.8122 19.2445 14.8122 19.2445 14.872 19.3043C15.5298 19.7231 15.9484 20.3214 16.0082 21.0393C16.068 21.3982 16.068 24.0306 16.0082 26.3639C16.068 27.3809 16.2473 28.2185 16.4865 28.8168C16.7855 29.7142 17.6227 31.3295 19.1176 31.2099C20.1939 31.1501 21.2104 30.4919 21.8682 29.6544C22.5857 28.757 22.8847 27.7399 22.9445 26.6032L22.8847 22.7144Z" fill="#0048FF"/>
    <path d="M9.01281 18.7658C7.75709 17.4497 7.15912 15.7147 7.39831 14.0993C7.63749 12.5438 7.5179 10.9884 7.39831 10.1508C7.39831 9.85165 7.33852 9.67217 7.33852 9.55251C7.45812 7.21926 8.35505 3.50999 10.8067 1.2964C9.61077 0.817779 7.63748 0.219502 5.78381 0.279329C2.9136 0.398983 0.103196 2.37327 0.34238 8.05684C0.461973 10.1508 2.8538 22.8341 6.08279 22.7743C6.56115 22.7743 7.03954 22.4751 7.51791 21.8769C8.29525 20.9196 9.0726 20.0821 9.61077 19.4838C9.49117 19.1846 9.25199 19.0052 9.01281 18.7658ZM25.9949 7.7577C25.9949 7.87736 25.9949 7.99701 25.9949 8.05684C25.9949 8.77476 25.9351 9.43286 25.8753 10.1508C25.8155 10.6294 25.7557 11.1678 25.7557 11.6465C25.7557 12.1251 25.8155 12.6635 25.8753 13.1421C26.0547 14.3387 26.2341 15.7147 25.2773 17.33C25.4567 17.5693 25.5763 17.7488 25.7557 17.9881C29.3435 12.1849 30.7786 5.3048 29.4032 3.56981C27.3104 0.937426 24.4402 0.159668 22.1679 0.159668C21.4504 0.159668 20.7926 0.279337 20.2545 0.398991C24.1412 2.37328 25.8753 6.44151 25.9949 7.7577ZM29.1043 19.6633C27.0114 20.082 26.0547 19.8428 25.5763 19.5436C25.5165 19.6035 25.3969 19.6633 25.3371 19.6633C25.0381 19.8427 24.6196 20.1419 24.5 21.817C24.5598 21.817 24.6196 21.817 24.6794 21.8769H25.0381C26.0547 21.9367 27.3702 21.6376 28.2073 21.2786C29.8218 20.5008 30.7786 19.3043 29.1043 19.6633ZM14.3945 21.2188C14.3945 20.9795 14.2151 20.8 14.0357 20.6803L13.9759 20.6205C13.6769 20.5009 13.3779 20.3812 12.8995 20.3812C12.78 20.3812 12.7202 20.3812 12.6006 20.3812C12.5408 20.3812 12.5408 20.3812 12.481 20.3812C12.1222 20.6803 11.584 20.8598 10.3283 21.1589C7.99628 21.7572 9.37157 22.4153 10.2685 22.535C11.1057 22.7743 13.1387 23.0136 14.514 21.8769C14.3945 21.5777 14.3945 21.3384 14.3945 21.2188Z" fill="#0048FF"/>
</svg>
