<svg width="23" height="30" viewBox="0 0 23 30" fill="none" xmlns="http://www.w3.org/2000/svg">
    <path d="M13.5995 0.233643C15.1542 3.94292 8.03849 6.27617 7.38073 9.38718C6.78278 12.2589 11.6262 15.6092 11.6262 15.6092C10.9087 14.4127 10.3705 13.4554 9.59318 11.6008C8.33747 8.42995 17.1275 5.61808 13.5995 0.233643ZM18.2636 5.43859C18.2636 5.43859 12.0448 5.85738 11.7458 9.98545C11.6262 11.8401 13.3603 12.7973 13.4201 14.1135C13.4799 15.1904 12.3438 16.1477 12.3438 16.1477C12.3438 16.1477 14.3769 15.7887 14.9748 14.1135C15.6924 12.2589 13.6593 11.0025 13.8387 9.50684C14.0779 8.07099 18.2636 5.43859 18.2636 5.43859ZM19.7585 14.9511C19.1007 14.8913 18.3832 15.1904 17.7254 15.669C18.9811 15.3699 20.1173 16.2075 20.1173 17.1647C20.1173 19.2586 17.1873 21.2928 17.1873 21.2928C17.1873 21.2928 21.7915 20.7543 21.7915 17.2844C21.7317 15.8485 20.8348 15.0109 19.7585 14.9511ZM7.56012 15.0109C5.94563 15.0707 2.77645 15.3101 2.77645 16.6263C2.77645 18.3612 10.2509 18.5407 15.5728 17.4638C15.5728 17.4638 17.0079 16.4468 17.3667 16.028C13.8985 16.7459 5.94563 16.8656 5.94563 16.2673C5.94563 15.669 8.51685 15.0708 8.51685 15.0708C8.51685 15.0708 8.09829 15.0109 7.56012 15.0109ZM7.14155 18.2416C6.24461 18.2416 4.9291 18.9595 4.9291 19.6176C4.9291 20.9936 11.5067 22.0107 16.3501 20.0364L14.6758 18.9595C11.3871 20.0962 5.34767 19.7373 7.14155 18.2416ZM7.91889 21.2928C6.72298 21.2928 5.94563 22.0705 5.94563 22.609C5.94563 24.344 13.0613 24.5234 15.9316 22.7286L14.1377 21.5321C12.0448 22.5491 6.72298 22.6688 7.91889 21.2928ZM3.91257 22.9081C1.9393 22.8483 0.683594 23.7457 0.683594 24.5234C0.683594 28.5319 20.7152 28.3524 20.7152 24.2243C20.7152 23.5662 19.9379 23.2072 19.6389 23.0876C21.2534 27.0362 3.31461 26.737 3.31461 24.4038C3.31461 23.8653 4.63012 23.3269 5.82604 23.5662L4.74971 22.9679C4.51052 22.9081 4.21155 22.9081 3.91257 22.9081ZM22.8081 25.6003C19.7585 28.5917 12.0448 29.6686 4.33114 27.8139C12.0448 31.1642 22.7483 29.3096 22.8081 25.6003Z" fill="#FF7B00"/>
</svg>

