<svg width="36" height="23" viewBox="0 0 36 23" fill="none" xmlns="http://www.w3.org/2000/svg">
    <path d="M24.3228 0C24.144 0 23.9652 0.178939 23.9652 0.357876V6.62068L22.5344 5.81546C22.445 5.72599 22.3555 5.72599 22.2661 5.72599C22.1767 5.72599 22.0873 5.72599 21.9979 5.81546L18.5998 7.78377C18.421 7.87323 18.3315 8.05218 18.3315 8.32058V12.3467C18.3315 12.5256 18.421 12.7046 18.5998 12.8835L21.9979 14.8518C22.0873 14.9413 22.1767 14.9413 22.2661 14.9413C22.3555 14.9413 22.445 14.9413 22.5344 14.8518L25.9324 12.8835C26.1113 12.794 26.2007 12.6151 26.2007 12.3467V10.3784V8.32058V1.4315C26.2007 1.25257 26.1113 1.07362 25.9324 0.894686L24.4123 0C24.4123 0 24.4122 0 24.3228 0ZM13.1451 5.72599C13.0556 5.72599 12.9662 5.72599 12.8768 5.81546L9.47878 7.78377C9.29993 7.87323 9.21052 8.05218 9.21052 8.32058V12.3467C9.21052 12.5256 9.29993 12.7046 9.47878 12.8835L12.8768 14.8518C13.0556 14.9413 13.3239 14.9413 13.5028 14.8518L16.9008 12.8835C17.0796 12.794 17.1691 12.6151 17.1691 12.3467V8.32058C17.1691 8.14165 17.0796 7.9627 16.9008 7.78377L13.5028 5.81546C13.3239 5.72599 13.2345 5.72599 13.1451 5.72599ZM31.4766 5.72599C31.3872 5.72599 31.2978 5.72599 31.2083 5.81546L27.8103 7.78377C27.6315 7.87323 27.5421 8.05218 27.5421 8.32058V12.3467C27.5421 12.5256 27.6315 12.7046 27.8103 12.8835L31.1189 14.8518C31.2978 14.9413 31.566 14.9413 31.7448 14.8518L33.3545 13.8676C33.5333 13.7782 33.5333 13.5098 33.3545 13.4203L29.7776 11.3625V9.30474L31.4766 8.32058L33.1756 9.30474V10.7362C33.1756 10.9152 33.3545 10.9152 33.4439 10.9152C33.891 10.6468 35.1429 9.93102 35.1429 9.93102C35.3218 9.84155 35.4112 9.66261 35.4112 9.3942V8.32058C35.4112 8.14165 35.3218 7.9627 35.1429 7.78377L31.7448 5.81546C31.6554 5.72599 31.566 5.72599 31.4766 5.72599ZM3.93459 5.72599C3.84517 5.72599 3.75576 5.72599 3.66634 5.81546L0.26831 7.78377C0.0894658 7.87323 0 8.05218 0 8.32058V13.4203C0 13.6887 0.268266 13.8676 0.447111 13.6887L1.9673 12.794C2.14614 12.7045 2.23555 12.5256 2.23555 12.2572V9.21527L3.93459 8.23111L5.63364 9.21527V12.2572C5.63364 12.4361 5.72305 12.6151 5.90189 12.794L7.42208 13.6887C7.60092 13.7782 7.86919 13.6887 7.86919 13.4203V8.32058C7.86919 8.14165 7.77972 7.9627 7.60088 7.78377L4.20285 5.81546C4.11343 5.72599 4.02402 5.72599 3.93459 5.72599ZM22.2661 8.32058L23.9652 9.30474V10.2889V11.2731L22.2661 12.2572L20.5671 11.2731V9.21527L22.2661 8.32058ZM31.4766 9.1258L30.493 9.66261V10.8257L31.4766 11.3625L32.4603 10.8257V9.66261L31.4766 9.1258ZM17.6162 13.7782C17.5267 13.7782 17.3479 13.7782 17.2585 13.8676L14.0393 15.7465C13.8604 15.8359 13.6816 16.1044 13.6816 16.3728V20.1304C13.6816 20.3988 13.8604 20.5778 14.0393 20.7567L14.8441 21.2041C15.2912 21.383 15.3806 21.383 15.5595 21.383C16.1854 21.383 16.5431 21.0251 16.5431 20.3988V16.7306C16.5431 16.6412 16.5431 16.6412 16.4537 16.6412H16.0066C15.9172 16.6412 15.9172 16.7306 15.9172 16.7306V20.3988C15.9172 20.6673 15.6489 20.9357 15.1124 20.7567L14.2181 20.2199L14.1287 20.1304V16.3728C14.1287 16.3728 14.1287 16.2833 14.2181 16.2833L17.4373 14.4045H17.5268L20.7459 16.2833L20.8354 16.3728V20.1304C20.8354 20.1304 20.8354 20.2199 20.7459 20.2199L17.5268 22.0987H17.4373L16.6325 21.6514H16.5431C16.2748 21.7409 16.2748 21.8303 16.096 21.8303C16.0066 21.8303 16.0066 21.9198 16.096 22.0093L17.1691 22.6356C17.2585 22.725 17.3479 22.725 17.5268 22.725C17.6162 22.725 17.795 22.725 17.8844 22.6356L21.1036 20.7567C21.2825 20.6672 21.4613 20.3988 21.4613 20.1304V16.3728C21.4613 16.1044 21.3719 15.9254 21.1036 15.7465L17.8844 13.8676C17.795 13.7782 17.7056 13.7782 17.6162 13.7782ZM22.6238 15.4781C22.2661 15.4781 21.9979 15.7465 21.9979 16.1043C21.9979 16.4622 22.2661 16.7306 22.6238 16.7306C22.9815 16.7306 23.2497 16.4622 23.2497 16.1043C23.2497 15.7465 22.9815 15.4781 22.6238 15.4781ZM22.6238 15.5675C22.8921 15.5675 23.1603 15.8359 23.1603 16.1043C23.1603 16.3728 22.8921 16.6412 22.6238 16.6412C22.3556 16.6412 22.0873 16.3728 22.0873 16.1043C22.0873 15.7465 22.3556 15.5675 22.6238 15.5675ZM22.3555 15.7465V16.4622H22.445V16.1938H22.5344C22.6238 16.1938 22.6238 16.1938 22.6238 16.2833V16.4622H22.8026C22.8026 16.4622 22.8026 16.3728 22.8026 16.2833C22.8026 16.1938 22.8027 16.1043 22.7132 16.1043C22.8027 16.1043 22.8921 16.1044 22.8921 15.9254C22.8921 15.7465 22.7133 15.7465 22.6238 15.7465H22.3555ZM22.5344 15.8359H22.6238C22.6238 15.8359 22.7132 15.8359 22.7132 15.9254C22.7132 15.9254 22.7133 16.0149 22.6238 16.0149H22.5344V15.8359ZM18.421 16.3728C17.5268 16.3728 16.9902 16.7306 16.9902 17.4464C16.9902 18.1621 17.5268 18.3411 18.421 18.4305C19.4941 18.52 19.5835 18.6989 19.5835 18.8779C19.5835 19.2358 19.3152 19.4147 18.5998 19.4147C17.7056 19.4147 17.5268 19.2358 17.5268 18.7884L17.4373 18.6989H16.9902C16.9008 18.6989 16.9008 18.6989 16.9008 18.7884C16.9008 19.3252 17.1691 19.9515 18.5998 19.9515C19.6729 19.9515 20.2094 19.5042 20.2094 18.8779C20.2094 18.1621 19.7623 17.9832 18.7786 17.8937C17.795 17.8043 17.7056 17.7148 17.7056 17.4464C17.7056 17.2674 17.795 16.999 18.5104 16.999C19.1363 16.999 19.4046 17.178 19.4941 17.6253C19.4941 17.7148 19.494 17.7148 19.5835 17.7148H20.0306H20.12C20.12 17.7148 20.12 17.7148 20.12 17.6253C20.0306 16.7306 19.4941 16.3728 18.421 16.3728Z" fill="#25CE85"/>
</svg>
