<svg width="32" height="18" viewBox="0 0 32 18" fill="none" xmlns="http://www.w3.org/2000/svg">
    <path d="M15.7861 0C11.5406 0 7.65388 0.897406 4.78367 2.39308C1.91347 3.88876 0 6.04253 0 8.55527C0 11.068 1.91347 13.2218 4.78367 14.7175C7.65388 16.2131 11.5406 17.1105 15.7861 17.1105C20.0316 17.1105 23.9184 16.2131 26.7886 14.7175C29.6588 13.2218 31.5723 11.068 31.5723 8.55527C31.5723 6.04253 29.6588 3.88876 26.7886 2.39308C23.9184 0.897406 20.0914 0 15.7861 0ZM15.7861 1.31619C19.8523 1.31619 23.5596 2.2136 26.1906 3.52979C28.8216 4.90582 30.2567 6.70063 30.2567 8.55527C30.2567 10.4099 28.8216 12.2047 26.1906 13.5807C23.5596 14.9568 19.9121 15.7943 15.7861 15.7943C11.6602 15.7943 8.01265 14.8969 5.38163 13.5807C2.75061 12.2047 1.31552 10.4099 1.31552 8.55527C1.31552 6.70063 2.75061 4.90582 5.38163 3.52979C8.01265 2.2136 11.72 1.31619 15.7861 1.31619ZM14.1716 2.63239L12.4974 10.5296H14.2314L15.0686 6.58098H16.4439C16.8624 6.58098 17.1614 6.6408 17.3408 6.82029C17.4604 6.93994 17.5202 7.23907 17.4006 7.65786L16.7429 10.5894H18.477L19.1347 7.41856C19.2543 6.6408 19.1945 6.10235 18.7759 5.80322C18.4172 5.44425 17.7594 5.32461 16.7429 5.32461H15.1882L15.7263 2.69222H14.1716V2.63239ZM6.57755 5.26478L5.26205 12.5039H6.99613L7.35491 10.5296H8.43123C10.7035 10.5296 11.9592 9.99113 12.3778 8.07666C12.7963 6.4015 11.7798 5.26478 10.1055 5.26478H6.57755ZM20.3904 5.26478L19.0749 12.5039H20.809L21.1678 10.5296H22.2441C24.5163 10.5296 25.772 9.99113 26.1906 8.07666C26.6092 6.4015 25.5926 5.26478 23.9184 5.26478H20.3904ZM8.07245 6.58098H9.44776C10.5839 6.58098 10.8231 7.05959 10.7633 7.65786C10.5839 9.09371 9.68694 9.21337 8.73021 9.21337H7.59409L8.07245 6.58098ZM21.8853 6.58098H23.2606C24.3967 6.58098 24.6359 7.05959 24.5761 7.65786C24.3967 9.09371 23.4998 9.21337 22.5431 9.21337H21.4069L21.8853 6.58098Z" fill="#0048FF"/>
</svg>
